<mxfile host="app.diagrams.net" agent="Mozilla/5.0 (Windows NT 10.0; Win64; x64) AppleWebKit/537.36 (KHTML, like Gecko) Chrome/131.0.0.0 Safari/537.36" version="25.0.3">
  <diagram name="Page-1" id="c4acf3e9-155e-7222-9cf6-157b1a14988f">
    <mxGraphModel dx="5900" dy="3360" grid="1" gridSize="10" guides="1" tooltips="1" connect="1" arrows="1" fold="1" page="1" pageScale="1" pageWidth="850" pageHeight="1100" background="none" math="0" shadow="0">
      <root>
        <mxCell id="0" />
        <mxCell id="1" parent="0" />
        <mxCell id="17acba5748e5396b-1" value="frame" style="shape=umlFrame;whiteSpace=wrap;html=1;rounded=0;shadow=0;comic=0;labelBackgroundColor=none;strokeWidth=1;fontFamily=Verdana;fontSize=10;align=center;" parent="1" vertex="1">
          <mxGeometry x="-1680" y="-1085" width="1390" height="1560" as="geometry" />
        </mxCell>
        <mxCell id="5d2195bd80daf111-40" style="edgeStyle=orthogonalEdgeStyle;rounded=0;html=1;dashed=1;labelBackgroundColor=none;startFill=0;endArrow=open;endFill=0;endSize=10;fontFamily=Verdana;fontSize=10;" parent="1" edge="1">
          <mxGeometry relative="1" as="geometry">
            <Array as="points" />
            <mxPoint x="730" y="814" as="sourcePoint" />
            <mxPoint x="730" y="838" as="targetPoint" />
          </mxGeometry>
        </mxCell>
        <mxCell id="-JUCeMjN_p96MS28P27T-35" value="&lt;font style=&quot;font-size: 14px;&quot;&gt;Local Cinema managment System&lt;/font&gt;" style="shape=umlFrame;whiteSpace=wrap;html=1;rounded=0;shadow=0;comic=0;labelBackgroundColor=none;strokeWidth=1;fontFamily=Verdana;fontSize=10;align=center;width=260;height=40;strokeColor=#1A1A1A;" parent="1" vertex="1">
          <mxGeometry x="290" y="-1100" width="1380" height="1590" as="geometry" />
        </mxCell>
        <mxCell id="-JUCeMjN_p96MS28P27T-36" value="&lt;font style=&quot;font-size: 21px;&quot;&gt;Client&lt;/font&gt;" style="shape=umlActor;verticalLabelPosition=bottom;verticalAlign=top;html=1;" parent="1" vertex="1">
          <mxGeometry x="30" y="-890" width="100" height="170" as="geometry" />
        </mxCell>
        <mxCell id="-JUCeMjN_p96MS28P27T-38" value="&lt;font style=&quot;font-size: 20px;&quot;&gt;Admin&lt;/font&gt;" style="shape=umlActor;verticalLabelPosition=bottom;verticalAlign=top;html=1;" parent="1" vertex="1">
          <mxGeometry x="30" y="-340" width="110" height="180" as="geometry" />
        </mxCell>
        <mxCell id="-JUCeMjN_p96MS28P27T-43" value="&lt;font style=&quot;font-size: 23px;&quot;&gt;Login/Logout&lt;/font&gt;" style="ellipse;whiteSpace=wrap;html=1;" parent="1" vertex="1">
          <mxGeometry x="630" y="-840" width="220" height="110" as="geometry" />
        </mxCell>
        <mxCell id="-JUCeMjN_p96MS28P27T-45" value="" style="endArrow=open;endFill=1;endSize=12;html=1;rounded=0;exitX=0.5;exitY=0.5;exitDx=0;exitDy=0;exitPerimeter=0;entryX=0;entryY=0.5;entryDx=0;entryDy=0;" parent="1" source="-JUCeMjN_p96MS28P27T-36" target="-JUCeMjN_p96MS28P27T-43" edge="1">
          <mxGeometry width="160" relative="1" as="geometry">
            <mxPoint x="200" y="-877.7918126479082" as="sourcePoint" />
            <mxPoint x="482" y="-960" as="targetPoint" />
            <Array as="points">
              <mxPoint x="380" y="-830" />
            </Array>
          </mxGeometry>
        </mxCell>
        <mxCell id="-JUCeMjN_p96MS28P27T-46" value="&lt;font style=&quot;font-size: 18px;&quot;&gt;see all TV shows and movies available&lt;/font&gt;" style="ellipse;whiteSpace=wrap;html=1;" parent="1" vertex="1">
          <mxGeometry x="990" y="-1090" width="220" height="110" as="geometry" />
        </mxCell>
        <mxCell id="-JUCeMjN_p96MS28P27T-48" value="&lt;font style=&quot;font-size: 22px;&quot;&gt;Search movie&lt;/font&gt;" style="ellipse;whiteSpace=wrap;html=1;" parent="1" vertex="1">
          <mxGeometry x="1030" y="-975" width="250" height="120" as="geometry" />
        </mxCell>
        <mxCell id="-JUCeMjN_p96MS28P27T-49" value="" style="endArrow=open;endFill=1;endSize=12;html=1;rounded=0;entryX=0.024;entryY=0.413;entryDx=0;entryDy=0;entryPerimeter=0;" parent="1" target="-JUCeMjN_p96MS28P27T-48" edge="1">
          <mxGeometry width="160" relative="1" as="geometry">
            <mxPoint x="90" y="-800" as="sourcePoint" />
            <mxPoint x="400" y="-810" as="targetPoint" />
          </mxGeometry>
        </mxCell>
        <mxCell id="-JUCeMjN_p96MS28P27T-50" value="&lt;font style=&quot;font-size: 19px;&quot;&gt;Search movie by genre&lt;/font&gt;" style="ellipse;whiteSpace=wrap;html=1;" parent="1" vertex="1">
          <mxGeometry x="1360" y="-1090" width="250" height="120" as="geometry" />
        </mxCell>
        <mxCell id="-JUCeMjN_p96MS28P27T-52" value="&lt;font style=&quot;font-size: 15px;&quot;&gt;Extend&lt;/font&gt;" style="html=1;verticalAlign=bottom;endArrow=open;dashed=1;endSize=8;curved=0;rounded=0;entryX=0.952;entryY=0.284;entryDx=0;entryDy=0;entryPerimeter=0;exitX=0.17;exitY=0.878;exitDx=0;exitDy=0;exitPerimeter=0;" parent="1" source="-JUCeMjN_p96MS28P27T-50" target="-JUCeMjN_p96MS28P27T-48" edge="1">
          <mxGeometry relative="1" as="geometry">
            <mxPoint x="810" y="-780" as="sourcePoint" />
            <mxPoint x="730" y="-780" as="targetPoint" />
          </mxGeometry>
        </mxCell>
        <mxCell id="-JUCeMjN_p96MS28P27T-53" value="&lt;font style=&quot;font-size: 19px;&quot;&gt;Search movie by title&lt;/font&gt;" style="ellipse;whiteSpace=wrap;html=1;" parent="1" vertex="1">
          <mxGeometry x="1400" y="-920" width="250" height="120" as="geometry" />
        </mxCell>
        <mxCell id="-JUCeMjN_p96MS28P27T-54" value="&lt;font style=&quot;font-size: 15px;&quot;&gt;Extend&lt;/font&gt;" style="html=1;verticalAlign=bottom;endArrow=open;dashed=1;endSize=8;curved=0;rounded=0;exitX=0.024;exitY=0.597;exitDx=0;exitDy=0;exitPerimeter=0;entryX=1.009;entryY=0.559;entryDx=0;entryDy=0;entryPerimeter=0;" parent="1" source="-JUCeMjN_p96MS28P27T-53" target="-JUCeMjN_p96MS28P27T-48" edge="1">
          <mxGeometry relative="1" as="geometry">
            <mxPoint x="853" y="-825" as="sourcePoint" />
            <mxPoint x="870" y="-760" as="targetPoint" />
          </mxGeometry>
        </mxCell>
        <mxCell id="-JUCeMjN_p96MS28P27T-55" value="&lt;font style=&quot;&quot;&gt;&lt;span style=&quot;font-size: 25px;&quot;&gt;reservation&lt;/span&gt;&lt;/font&gt;" style="ellipse;whiteSpace=wrap;html=1;" parent="1" vertex="1">
          <mxGeometry x="450" y="-640" width="250" height="120" as="geometry" />
        </mxCell>
        <mxCell id="-JUCeMjN_p96MS28P27T-58" value="&lt;font style=&quot;font-size: 22px;&quot;&gt;select a seat&lt;/font&gt;" style="ellipse;whiteSpace=wrap;html=1;strokeWidth=1;" parent="1" vertex="1">
          <mxGeometry x="960" y="-840" width="190" height="100" as="geometry" />
        </mxCell>
        <mxCell id="-JUCeMjN_p96MS28P27T-59" value="&lt;span style=&quot;font-size: 29px;&quot;&gt;received&lt;/span&gt;" style="ellipse;whiteSpace=wrap;html=1;" parent="1" vertex="1">
          <mxGeometry x="1190" y="-730" width="190" height="100" as="geometry" />
        </mxCell>
        <mxCell id="-JUCeMjN_p96MS28P27T-60" value="&lt;span style=&quot;font-size: 29px;&quot;&gt;make payment&lt;/span&gt;" style="ellipse;whiteSpace=wrap;html=1;" parent="1" vertex="1">
          <mxGeometry x="950" y="-660" width="190" height="100" as="geometry" />
        </mxCell>
        <mxCell id="-JUCeMjN_p96MS28P27T-65" value="include" style="endArrow=open;endSize=12;dashed=1;html=1;rounded=0;exitX=0;exitY=0.5;exitDx=0;exitDy=0;" parent="1" source="-JUCeMjN_p96MS28P27T-60" target="-JUCeMjN_p96MS28P27T-55" edge="1">
          <mxGeometry width="160" relative="1" as="geometry">
            <mxPoint x="510" y="-502" as="sourcePoint" />
            <mxPoint x="670" y="-502" as="targetPoint" />
            <Array as="points" />
          </mxGeometry>
        </mxCell>
        <mxCell id="-JUCeMjN_p96MS28P27T-67" value="include" style="endArrow=open;endSize=12;dashed=1;html=1;rounded=0;exitX=0;exitY=0.5;exitDx=0;exitDy=0;" parent="1" source="-JUCeMjN_p96MS28P27T-59" target="-JUCeMjN_p96MS28P27T-55" edge="1">
          <mxGeometry width="160" relative="1" as="geometry">
            <mxPoint x="564" y="-536" as="sourcePoint" />
            <mxPoint x="468" y="-480" as="targetPoint" />
            <Array as="points">
              <mxPoint x="990" y="-710" />
            </Array>
          </mxGeometry>
        </mxCell>
        <mxCell id="-JUCeMjN_p96MS28P27T-68" value="include" style="endArrow=open;endSize=12;dashed=1;html=1;rounded=0;exitX=0.099;exitY=0.8;exitDx=0;exitDy=0;exitPerimeter=0;" parent="1" source="-JUCeMjN_p96MS28P27T-58" target="-JUCeMjN_p96MS28P27T-55" edge="1">
          <mxGeometry width="160" relative="1" as="geometry">
            <mxPoint x="675" y="-527" as="sourcePoint" />
            <mxPoint x="928" y="-488" as="targetPoint" />
            <Array as="points" />
          </mxGeometry>
        </mxCell>
        <mxCell id="-JUCeMjN_p96MS28P27T-71" value="" style="endArrow=open;endFill=1;endSize=12;html=1;rounded=0;entryX=0.076;entryY=0.708;entryDx=0;entryDy=0;exitX=0.5;exitY=0.5;exitDx=0;exitDy=0;exitPerimeter=0;entryPerimeter=0;" parent="1" source="-JUCeMjN_p96MS28P27T-36" target="-JUCeMjN_p96MS28P27T-46" edge="1">
          <mxGeometry width="160" relative="1" as="geometry">
            <mxPoint x="80" y="-805" as="sourcePoint" />
            <mxPoint x="420" y="-1010" as="targetPoint" />
          </mxGeometry>
        </mxCell>
        <mxCell id="-JUCeMjN_p96MS28P27T-74" value="" style="endArrow=open;endFill=1;endSize=12;html=1;rounded=0;exitX=0.5;exitY=0.5;exitDx=0;exitDy=0;exitPerimeter=0;entryX=0.5;entryY=1;entryDx=0;entryDy=0;" parent="1" source="-JUCeMjN_p96MS28P27T-36" target="-JUCeMjN_p96MS28P27T-73" edge="1">
          <mxGeometry width="160" relative="1" as="geometry">
            <mxPoint x="710" y="-770" as="sourcePoint" />
            <mxPoint x="870" y="-770" as="targetPoint" />
            <Array as="points">
              <mxPoint x="320" y="-900" />
            </Array>
          </mxGeometry>
        </mxCell>
        <mxCell id="-JUCeMjN_p96MS28P27T-76" value="include" style="endArrow=open;endSize=12;dashed=1;html=1;rounded=0;" parent="1" target="-JUCeMjN_p96MS28P27T-55" edge="1" source="-JUCeMjN_p96MS28P27T-73">
          <mxGeometry width="160" relative="1" as="geometry">
            <mxPoint x="480" y="-950" as="sourcePoint" />
            <mxPoint x="820" y="-770" as="targetPoint" />
            <Array as="points" />
          </mxGeometry>
        </mxCell>
        <mxCell id="-JUCeMjN_p96MS28P27T-77" value="&lt;span style=&quot;font-size: 22px;&quot;&gt;select a time&lt;/span&gt;" style="ellipse;whiteSpace=wrap;html=1;strokeWidth=2;" parent="1" vertex="1">
          <mxGeometry x="800" y="-542" width="220" height="130" as="geometry" />
        </mxCell>
        <mxCell id="-JUCeMjN_p96MS28P27T-78" value="&lt;span style=&quot;font-size: 22px;&quot;&gt;select&amp;nbsp;&lt;/span&gt;&lt;span style=&quot;font-size: 22px;&quot;&gt;specific&amp;nbsp;&lt;/span&gt;&lt;div&gt;&lt;span style=&quot;font-size: 22px;&quot;&gt;theater&lt;/span&gt;&lt;/div&gt;" style="ellipse;whiteSpace=wrap;html=1;strokeWidth=2;" parent="1" vertex="1">
          <mxGeometry x="490" y="-470" width="220" height="130" as="geometry" />
        </mxCell>
        <mxCell id="-JUCeMjN_p96MS28P27T-79" value="Extend" style="endArrow=open;endSize=12;dashed=1;html=1;rounded=0;exitX=0.02;exitY=0.435;exitDx=0;exitDy=0;exitPerimeter=0;entryX=0.8;entryY=0.903;entryDx=0;entryDy=0;entryPerimeter=0;" parent="1" source="-JUCeMjN_p96MS28P27T-77" target="-JUCeMjN_p96MS28P27T-55" edge="1">
          <mxGeometry width="160" relative="1" as="geometry">
            <mxPoint x="902" y="-555" as="sourcePoint" />
            <mxPoint x="650" y="-535" as="targetPoint" />
            <Array as="points" />
          </mxGeometry>
        </mxCell>
        <mxCell id="-JUCeMjN_p96MS28P27T-80" value="Extend" style="endArrow=open;endSize=12;dashed=1;html=1;rounded=0;exitX=0.043;exitY=0.301;exitDx=0;exitDy=0;exitPerimeter=0;entryX=0.22;entryY=0.919;entryDx=0;entryDy=0;entryPerimeter=0;" parent="1" source="-JUCeMjN_p96MS28P27T-78" target="-JUCeMjN_p96MS28P27T-55" edge="1">
          <mxGeometry width="160" relative="1" as="geometry">
            <mxPoint x="726" y="-560" as="sourcePoint" />
            <mxPoint x="474" y="-540" as="targetPoint" />
            <Array as="points" />
          </mxGeometry>
        </mxCell>
        <mxCell id="-JUCeMjN_p96MS28P27T-81" value="check the booking history&amp;nbsp;" style="ellipse;whiteSpace=wrap;html=1;" parent="1" vertex="1">
          <mxGeometry x="670" y="-1090" width="180" height="110" as="geometry" />
        </mxCell>
        <mxCell id="6axxp_OvReKWP-azyM8Y-1" value="Include" style="endArrow=open;endSize=12;dashed=1;html=1;rounded=0;entryX=0.981;entryY=0.352;entryDx=0;entryDy=0;entryPerimeter=0;" edge="1" parent="1" target="-JUCeMjN_p96MS28P27T-73">
          <mxGeometry width="160" relative="1" as="geometry">
            <mxPoint x="671" y="-1020" as="sourcePoint" />
            <mxPoint x="578.69" y="-992.3000000000001" as="targetPoint" />
            <mxPoint as="offset" />
          </mxGeometry>
        </mxCell>
        <mxCell id="6axxp_OvReKWP-azyM8Y-3" value="Management movies" style="ellipse;whiteSpace=wrap;html=1;" vertex="1" parent="1">
          <mxGeometry x="400" y="-310" width="250" height="150" as="geometry" />
        </mxCell>
        <mxCell id="6axxp_OvReKWP-azyM8Y-4" value="Add movie" style="ellipse;whiteSpace=wrap;html=1;" vertex="1" parent="1">
          <mxGeometry x="730" y="-352" width="140" height="70" as="geometry" />
        </mxCell>
        <mxCell id="6axxp_OvReKWP-azyM8Y-6" value="Delete movie" style="ellipse;whiteSpace=wrap;html=1;" vertex="1" parent="1">
          <mxGeometry x="680" y="-160" width="140" height="80" as="geometry" />
        </mxCell>
        <mxCell id="6axxp_OvReKWP-azyM8Y-7" value="Edit movie" style="ellipse;whiteSpace=wrap;html=1;" vertex="1" parent="1">
          <mxGeometry x="730" y="-260" width="140" height="70" as="geometry" />
        </mxCell>
        <mxCell id="6axxp_OvReKWP-azyM8Y-8" value="Extend" style="endArrow=open;endSize=12;dashed=1;html=1;rounded=0;entryX=1;entryY=1;entryDx=0;entryDy=0;" edge="1" parent="1" source="6axxp_OvReKWP-azyM8Y-6" target="6axxp_OvReKWP-azyM8Y-3">
          <mxGeometry width="160" relative="1" as="geometry">
            <mxPoint x="410" y="170" as="sourcePoint" />
            <mxPoint x="570" y="170" as="targetPoint" />
            <Array as="points" />
          </mxGeometry>
        </mxCell>
        <mxCell id="6axxp_OvReKWP-azyM8Y-9" value="Extend" style="endArrow=open;endSize=12;dashed=1;html=1;rounded=0;entryX=0.984;entryY=0.624;entryDx=0;entryDy=0;entryPerimeter=0;" edge="1" parent="1" source="6axxp_OvReKWP-azyM8Y-7" target="6axxp_OvReKWP-azyM8Y-3">
          <mxGeometry width="160" relative="1" as="geometry">
            <mxPoint x="420" y="180" as="sourcePoint" />
            <mxPoint x="456" y="237" as="targetPoint" />
            <Array as="points">
              <mxPoint x="720" y="-250" />
            </Array>
          </mxGeometry>
        </mxCell>
        <mxCell id="6axxp_OvReKWP-azyM8Y-10" value="Extend" style="endArrow=open;endSize=12;dashed=1;html=1;rounded=0;entryX=0.906;entryY=0.237;entryDx=0;entryDy=0;entryPerimeter=0;" edge="1" parent="1" source="6axxp_OvReKWP-azyM8Y-4" target="6axxp_OvReKWP-azyM8Y-3">
          <mxGeometry width="160" relative="1" as="geometry">
            <mxPoint x="570" y="170" as="sourcePoint" />
            <mxPoint x="564" y="237" as="targetPoint" />
            <Array as="points">
              <mxPoint x="740" y="-300" />
            </Array>
          </mxGeometry>
        </mxCell>
        <mxCell id="6axxp_OvReKWP-azyM8Y-12" value="see the sales statistics for each movie or each theater in order" style="ellipse;whiteSpace=wrap;html=1;" vertex="1" parent="1">
          <mxGeometry x="390" y="-130" width="240" height="160" as="geometry" />
        </mxCell>
        <mxCell id="6axxp_OvReKWP-azyM8Y-13" style="edgeStyle=orthogonalEdgeStyle;rounded=0;orthogonalLoop=1;jettySize=auto;html=1;exitX=0.5;exitY=0.5;exitDx=0;exitDy=0;exitPerimeter=0;entryX=0.56;entryY=0.746;entryDx=0;entryDy=0;entryPerimeter=0;" edge="1" parent="1" source="-JUCeMjN_p96MS28P27T-38" target="-JUCeMjN_p96MS28P27T-36">
          <mxGeometry relative="1" as="geometry" />
        </mxCell>
        <mxCell id="6axxp_OvReKWP-azyM8Y-14" value="" style="endArrow=open;endFill=1;endSize=12;html=1;rounded=0;exitX=0.478;exitY=0.588;exitDx=0;exitDy=0;exitPerimeter=0;entryX=0.048;entryY=0.661;entryDx=0;entryDy=0;entryPerimeter=0;" edge="1" parent="1" source="-JUCeMjN_p96MS28P27T-38" target="6axxp_OvReKWP-azyM8Y-12">
          <mxGeometry width="160" relative="1" as="geometry">
            <mxPoint x="96" y="-224" as="sourcePoint" />
            <mxPoint x="410" y="-225" as="targetPoint" />
            <Array as="points">
              <mxPoint x="220" y="-160" />
            </Array>
          </mxGeometry>
        </mxCell>
        <mxCell id="-JUCeMjN_p96MS28P27T-73" value="&lt;span style=&quot;font-size: 21px;&quot;&gt;registration&lt;/span&gt;" style="ellipse;whiteSpace=wrap;html=1;" parent="1" vertex="1">
          <mxGeometry x="350" y="-1040" width="210" height="100" as="geometry" />
        </mxCell>
        <mxCell id="6axxp_OvReKWP-azyM8Y-16" value="include" style="endArrow=open;endSize=12;dashed=1;html=1;rounded=0;exitX=0;exitY=1;exitDx=0;exitDy=0;" edge="1" parent="1" source="-JUCeMjN_p96MS28P27T-73" target="6axxp_OvReKWP-azyM8Y-3">
          <mxGeometry width="160" relative="1" as="geometry">
            <mxPoint x="479" y="-930" as="sourcePoint" />
            <mxPoint x="210" y="-620" as="targetPoint" />
            <Array as="points">
              <mxPoint x="350" y="-700" />
            </Array>
          </mxGeometry>
        </mxCell>
        <mxCell id="6axxp_OvReKWP-azyM8Y-17" value="&lt;span style=&quot;box-sizing: inherit; font-weight: 600; color: rgb(63, 78, 85); font-family: Inter, Helvetica, sans-serif; font-size: 14px; text-align: start; text-wrap-mode: wrap; background-color: rgb(255, 255, 255);&quot;&gt;employers&lt;/span&gt;" style="swimlane;html=1;fontStyle=0;childLayout=stackLayout;horizontal=1;startSize=26;fillColor=none;horizontalStack=0;resizeParent=1;resizeLast=0;collapsible=1;marginBottom=0;swimlaneFillColor=#ffffff;rounded=0;shadow=0;comic=0;labelBackgroundColor=none;strokeWidth=1;fontFamily=Verdana;fontSize=10;align=center;sketch=1;curveFitting=1;jiggle=2;" vertex="1" parent="1">
          <mxGeometry x="-1330" y="-860" width="190" height="200" as="geometry" />
        </mxCell>
        <mxCell id="6axxp_OvReKWP-azyM8Y-18" value="+ field: type" style="text;html=1;strokeColor=none;fillColor=none;align=left;verticalAlign=top;spacingLeft=4;spacingRight=4;whiteSpace=wrap;overflow=hidden;rotatable=0;points=[[0,0.5],[1,0.5]];portConstraint=eastwest;sketch=1;curveFitting=1;jiggle=2;" vertex="1" parent="6axxp_OvReKWP-azyM8Y-17">
          <mxGeometry y="26" width="190" height="26" as="geometry" />
        </mxCell>
        <mxCell id="6axxp_OvReKWP-azyM8Y-20" value="+ field: type" style="text;html=1;strokeColor=none;fillColor=none;align=left;verticalAlign=top;spacingLeft=4;spacingRight=4;whiteSpace=wrap;overflow=hidden;rotatable=0;points=[[0,0.5],[1,0.5]];portConstraint=eastwest;sketch=1;curveFitting=1;jiggle=2;" vertex="1" parent="6axxp_OvReKWP-azyM8Y-17">
          <mxGeometry y="52" width="190" height="26" as="geometry" />
        </mxCell>
        <mxCell id="6axxp_OvReKWP-azyM8Y-19" value="+ field: type" style="text;html=1;strokeColor=none;fillColor=none;align=left;verticalAlign=top;spacingLeft=4;spacingRight=4;whiteSpace=wrap;overflow=hidden;rotatable=0;points=[[0,0.5],[1,0.5]];portConstraint=eastwest;sketch=1;curveFitting=1;jiggle=2;" vertex="1" parent="6axxp_OvReKWP-azyM8Y-17">
          <mxGeometry y="78" width="190" height="26" as="geometry" />
        </mxCell>
        <mxCell id="6axxp_OvReKWP-azyM8Y-21" value="Client" style="swimlane;html=1;fontStyle=0;childLayout=stackLayout;horizontal=1;startSize=26;fillColor=none;horizontalStack=0;resizeParent=1;resizeLast=0;collapsible=1;marginBottom=0;swimlaneFillColor=#ffffff;rounded=0;shadow=0;comic=0;labelBackgroundColor=none;strokeWidth=1;fontFamily=Verdana;fontSize=10;align=center;sketch=1;curveFitting=1;jiggle=2;" vertex="1" parent="1">
          <mxGeometry x="-800" y="-860" width="210" height="200" as="geometry">
            <mxRectangle x="-700" y="-730" width="70" height="30" as="alternateBounds" />
          </mxGeometry>
        </mxCell>
        <mxCell id="6axxp_OvReKWP-azyM8Y-22" value="+ Firstname: string" style="text;html=1;strokeColor=none;fillColor=none;align=left;verticalAlign=top;spacingLeft=4;spacingRight=4;whiteSpace=wrap;overflow=hidden;rotatable=0;points=[[0,0.5],[1,0.5]];portConstraint=eastwest;sketch=1;curveFitting=1;jiggle=2;" vertex="1" parent="6axxp_OvReKWP-azyM8Y-21">
          <mxGeometry y="26" width="210" height="26" as="geometry" />
        </mxCell>
        <mxCell id="6axxp_OvReKWP-azyM8Y-24" value="+ Lastname: string" style="text;html=1;strokeColor=none;fillColor=none;align=left;verticalAlign=top;spacingLeft=4;spacingRight=4;whiteSpace=wrap;overflow=hidden;rotatable=0;points=[[0,0.5],[1,0.5]];portConstraint=eastwest;sketch=1;curveFitting=1;jiggle=2;" vertex="1" parent="6axxp_OvReKWP-azyM8Y-21">
          <mxGeometry y="52" width="210" height="26" as="geometry" />
        </mxCell>
        <mxCell id="6axxp_OvReKWP-azyM8Y-23" value="+ field: type" style="text;html=1;strokeColor=none;fillColor=none;align=left;verticalAlign=top;spacingLeft=4;spacingRight=4;whiteSpace=wrap;overflow=hidden;rotatable=0;points=[[0,0.5],[1,0.5]];portConstraint=eastwest;sketch=1;curveFitting=1;jiggle=2;" vertex="1" parent="6axxp_OvReKWP-azyM8Y-21">
          <mxGeometry y="78" width="210" height="26" as="geometry" />
        </mxCell>
        <mxCell id="6axxp_OvReKWP-azyM8Y-25" style="edgeStyle=orthogonalEdgeStyle;rounded=0;html=1;dashed=1;labelBackgroundColor=none;startFill=0;endArrow=open;endFill=0;endSize=10;fontFamily=Verdana;fontSize=10;sketch=1;curveFitting=1;jiggle=2;" edge="1" source="6axxp_OvReKWP-azyM8Y-26" target="6axxp_OvReKWP-azyM8Y-27" parent="1">
          <mxGeometry relative="1" as="geometry">
            <Array as="points" />
          </mxGeometry>
        </mxCell>
        <mxCell id="6axxp_OvReKWP-azyM8Y-26" value="&lt;p style=&quot;margin:0px;margin-top:4px;text-align:center;&quot;&gt;&lt;i&gt;&amp;lt;&amp;lt;Interface&amp;gt;&amp;gt;&lt;/i&gt;&lt;br/&gt;&lt;b&gt;Interface&lt;/b&gt;&lt;/p&gt;&lt;hr size=&quot;1&quot;/&gt;&lt;p style=&quot;margin:0px;margin-left:4px;&quot;&gt;+ field1: Type&lt;br/&gt;+ field2: Type&lt;/p&gt;&lt;hr size=&quot;1&quot;/&gt;&lt;p style=&quot;margin:0px;margin-left:4px;&quot;&gt;+ method1(Type): Type&lt;br/&gt;+ method2(Type, Type): Type&lt;/p&gt;" style="verticalAlign=top;align=left;overflow=fill;fontSize=12;fontFamily=Helvetica;html=1;rounded=0;shadow=0;comic=0;labelBackgroundColor=none;strokeWidth=1;sketch=1;curveFitting=1;jiggle=2;" vertex="1" parent="1">
          <mxGeometry x="-1222.5" y="-396" width="190" height="140" as="geometry" />
        </mxCell>
        <mxCell id="6axxp_OvReKWP-azyM8Y-27" value="&amp;laquo;interface&amp;raquo;&lt;br&gt;&lt;b&gt;Name&lt;/b&gt;" style="html=1;rounded=0;shadow=0;comic=0;labelBackgroundColor=none;strokeWidth=1;fontFamily=Verdana;fontSize=10;align=center;sketch=1;curveFitting=1;jiggle=2;" vertex="1" parent="1">
          <mxGeometry x="-987.5" y="-351" width="110" height="50" as="geometry" />
        </mxCell>
        <mxCell id="6axxp_OvReKWP-azyM8Y-31" style="edgeStyle=orthogonalEdgeStyle;rounded=0;html=1;dashed=1;labelBackgroundColor=none;startFill=0;endArrow=open;endFill=0;endSize=10;fontFamily=Verdana;fontSize=10;sketch=1;curveFitting=1;jiggle=2;" edge="1" source="6axxp_OvReKWP-azyM8Y-34" target="6axxp_OvReKWP-azyM8Y-17" parent="1">
          <mxGeometry relative="1" as="geometry">
            <Array as="points">
              <mxPoint x="-1352.5" y="-336" />
              <mxPoint x="-1352.5" y="-506" />
            </Array>
          </mxGeometry>
        </mxCell>
        <mxCell id="6axxp_OvReKWP-azyM8Y-32" style="edgeStyle=orthogonalEdgeStyle;rounded=0;html=1;dashed=1;labelBackgroundColor=none;startFill=0;endArrow=open;endFill=0;endSize=10;fontFamily=Verdana;fontSize=10;sketch=1;curveFitting=1;jiggle=2;" edge="1" source="6axxp_OvReKWP-azyM8Y-34" target="6axxp_OvReKWP-azyM8Y-21" parent="1">
          <mxGeometry relative="1" as="geometry">
            <Array as="points">
              <mxPoint x="-1322.5" y="-316" />
              <mxPoint x="-1322.5" y="-416" />
              <mxPoint x="-1122.5" y="-416" />
              <mxPoint x="-1122.5" y="-466" />
            </Array>
          </mxGeometry>
        </mxCell>
        <mxCell id="6axxp_OvReKWP-azyM8Y-33" style="edgeStyle=orthogonalEdgeStyle;rounded=0;html=1;dashed=1;labelBackgroundColor=none;startFill=0;endArrow=open;endFill=0;endSize=10;fontFamily=Verdana;fontSize=10;sketch=1;curveFitting=1;jiggle=2;" edge="1" source="6axxp_OvReKWP-azyM8Y-34" target="6axxp_OvReKWP-azyM8Y-26" parent="1">
          <mxGeometry relative="1" as="geometry">
            <Array as="points">
              <mxPoint x="-1302.5" y="-286" />
              <mxPoint x="-1302.5" y="-326" />
            </Array>
          </mxGeometry>
        </mxCell>
        <mxCell id="6axxp_OvReKWP-azyM8Y-34" value="&lt;p style=&quot;margin:0px;margin-top:4px;text-align:center;&quot;&gt;&lt;i&gt;&amp;lt;&amp;lt;Interface&amp;gt;&amp;gt;&lt;/i&gt;&lt;br/&gt;&lt;b&gt;Interface&lt;/b&gt;&lt;/p&gt;&lt;hr size=&quot;1&quot;/&gt;&lt;p style=&quot;margin:0px;margin-left:4px;&quot;&gt;+ field1: Type&lt;br/&gt;+ field2: Type&lt;/p&gt;&lt;hr size=&quot;1&quot;/&gt;&lt;p style=&quot;margin:0px;margin-left:4px;&quot;&gt;+ method1(Type): Type&lt;br/&gt;+ method2(Type, Type): Type&lt;/p&gt;" style="verticalAlign=top;align=left;overflow=fill;fontSize=12;fontFamily=Helvetica;html=1;rounded=0;shadow=0;comic=0;labelBackgroundColor=none;strokeWidth=1" vertex="1" parent="1">
          <mxGeometry x="-1612.5" y="-356" width="190" height="140" as="geometry" />
        </mxCell>
        <mxCell id="6axxp_OvReKWP-azyM8Y-35" value="&lt;font style=&quot;font-size: 20px;&quot;&gt;Admin&lt;/font&gt;" style="shape=umlActor;verticalLabelPosition=bottom;verticalAlign=top;html=1;" vertex="1" parent="1">
          <mxGeometry x="25" y="30" width="110" height="180" as="geometry" />
        </mxCell>
        <mxCell id="6axxp_OvReKWP-azyM8Y-38" style="edgeStyle=orthogonalEdgeStyle;rounded=0;html=1;labelBackgroundColor=none;startFill=0;endArrow=open;endFill=0;endSize=10;fontFamily=Verdana;fontSize=10;dashed=1;sketch=1;curveFitting=1;jiggle=2;entryX=0.5;entryY=0;entryDx=0;entryDy=0;" edge="1" parent="1" target="6axxp_OvReKWP-azyM8Y-21">
          <mxGeometry relative="1" as="geometry">
            <mxPoint x="-900" y="-910" as="sourcePoint" />
            <mxPoint x="-525" y="-545" as="targetPoint" />
            <Array as="points" />
          </mxGeometry>
        </mxCell>
      </root>
    </mxGraphModel>
  </diagram>
</mxfile>
